<svg xmlns="http://www.w3.org/2000/svg" xmlns:xlink="http://www.w3.org/1999/xlink" width="1000" zoomAndPan="magnify" viewBox="0 0 750 749.999995" height="1000" preserveAspectRatio="xMidYMid meet" version="1.2"><defs/><g id="6d685846cc"><g style="fill:#ffffff;fill-opacity:1;"><g transform="translate(18.421544, 139.154917)"><path style="stroke:none" d="M 62.703125 -18.296875 L 44.953125 -18.296875 L 44.953125 0 L 0 0 L 0 -63.703125 L 62.703125 -63.703125 L 62.703125 -42.671875 L 44.953125 -42.671875 L 44.953125 -41.046875 L 62.703125 -41.046875 Z M 62.703125 -18.296875 "/></g></g><g style="fill:#ffffff;fill-opacity:1;"><g transform="translate(91.855725, 139.154917)"><path style="stroke:none" d="M 14.828125 -14.203125 C 13.796875 -16.804688 13.25 -19.503906 13.1875 -22.296875 C 13.132812 -25.085938 13.59375 -27.738281 14.5625 -30.25 C 15.53125 -32.769531 17.015625 -34.972656 19.015625 -36.859375 L 18.015625 -37.953125 C 14.859375 -34.796875 12.898438 -31.015625 12.140625 -26.609375 C 11.390625 -22.210938 11.800781 -17.953125 13.375 -13.828125 C 14.957031 -9.765625 17.398438 -6.425781 20.703125 -3.8125 C 24.003906 -1.207031 27.691406 0.515625 31.765625 1.359375 L 31.765625 2.453125 L 31.484375 2.453125 C 30.578125 2.453125 29.625 2.375 28.625 2.21875 C 27.625 2.070312 26.664062 1.910156 25.75 1.734375 C 21.925781 1.117188 18.4375 -0.203125 15.28125 -2.234375 C 12.132812 -4.265625 9.40625 -6.765625 7.09375 -9.734375 C 4.789062 -12.710938 3.015625 -15.988281 1.765625 -19.5625 C 0.523438 -23.144531 -0.09375 -26.785156 -0.09375 -30.484375 L -0.09375 -63.796875 L 66.890625 -63.796875 L 66.890625 -26.9375 C 66.640625 -23.289062 65.738281 -19.84375 64.1875 -16.59375 C 62.644531 -13.351562 60.597656 -10.441406 58.046875 -7.859375 C 55.503906 -5.285156 52.609375 -3.253906 49.359375 -1.765625 C 46.117188 -0.285156 42.617188 0.515625 38.859375 0.640625 C 35.460938 0.753906 32.15625 0.238281 28.9375 -0.90625 C 25.71875 -2.0625 22.878906 -3.773438 20.421875 -6.046875 C 17.972656 -8.328125 16.109375 -11.046875 14.828125 -14.203125 Z M 14.828125 -14.203125 "/></g></g><g style="fill:#ffffff;fill-opacity:1;"><g transform="translate(169.202733, 139.154917)"><path style="stroke:none" d="M 37.484375 -34.21875 L 30.484375 -34.21875 L 30.484375 -32.9375 L 56.421875 -32.9375 L 56.421875 0.09375 L -0.09375 0.09375 L -0.09375 -63.703125 L 37.484375 -63.703125 Z M 37.484375 -34.21875 "/></g></g><g style="fill:#ffffff;fill-opacity:1;"><g transform="translate(236.176187, 139.154917)"><path style="stroke:none" d="M 37.484375 -34.21875 L 30.484375 -34.21875 L 30.484375 -32.9375 L 56.421875 -32.9375 L 56.421875 0.09375 L -0.09375 0.09375 L -0.09375 -63.703125 L 37.484375 -63.703125 Z M 37.484375 -34.21875 "/></g></g><g style="fill:#ffffff;fill-opacity:1;"><g transform="translate(303.149641, 139.154917)"><path style="stroke:none" d="M 27.203125 -37.671875 L 27.203125 -20.015625 L -1 -20.015625 L -1 -37.671875 Z M 27.203125 -37.671875 "/></g></g><g style="fill:#ffffff;fill-opacity:1;"><g transform="translate(340.276402, 139.154917)"><path style="stroke:none" d="M 47.59375 -39.40625 C 49.78125 -40.195312 52.070312 -40.394531 54.46875 -40 C 56.863281 -39.601562 59 -38.828125 60.875 -37.671875 C 63.789062 -35.910156 66.003906 -33.484375 67.515625 -30.390625 C 69.035156 -27.296875 69.796875 -24.113281 69.796875 -20.84375 C 69.671875 -17.5625 68.863281 -14.554688 67.375 -11.828125 C 65.894531 -9.097656 63.910156 -6.765625 61.421875 -4.828125 C 59.117188 -3.128906 56.644531 -1.898438 54 -1.140625 C 51.363281 -0.378906 48.648438 0 45.859375 0 L 2.28125 0 L 2.28125 -31.84375 C 3.851562 -29.664062 5.734375 -27.9375 7.921875 -26.65625 C 9.984375 -25.445312 12.164062 -24.660156 14.46875 -24.296875 C 16.769531 -23.929688 19.078125 -24.050781 21.390625 -24.65625 L 20.84375 -25.9375 C 18.78125 -25.445312 16.671875 -25.382812 14.515625 -25.75 C 12.359375 -26.113281 10.398438 -26.875 8.640625 -28.03125 C 6.828125 -29 5.25 -30.347656 3.90625 -32.078125 C 2.570312 -33.804688 1.570312 -35.71875 0.90625 -37.8125 C 0.238281 -39.90625 -0.0625 -41.984375 0 -44.046875 C 0.125 -47.253906 0.910156 -50.222656 2.359375 -52.953125 C 3.816406 -55.691406 5.726562 -58 8.09375 -59.875 C 10.28125 -61.457031 12.675781 -62.609375 15.28125 -63.328125 C 17.894531 -64.054688 20.535156 -64.421875 23.203125 -64.421875 L 65.25 -64.421875 L 65.25 -35.9375 C 64.695312 -36.425781 64.117188 -36.910156 63.515625 -37.390625 C 62.910156 -37.878906 62.273438 -38.304688 61.609375 -38.671875 C 59.484375 -40.066406 57.144531 -40.945312 54.59375 -41.3125 C 52.050781 -41.675781 49.566406 -41.460938 47.140625 -40.671875 Z M 47.59375 -39.40625 "/></g></g><g style="fill:#ffffff;fill-opacity:1;"><g transform="translate(419.534333, 139.154917)"><path style="stroke:none" d="M 53.515625 -34.03125 L 53.515625 0.09375 L 15.75 0.09375 L 15.75 -34.03125 L 14.5625 -34.03125 L 14.5625 -26.03125 L 0 -26.03125 L 0 -63.796875 L 69.609375 -63.796875 L 69.609375 -26.03125 L 55.0625 -26.03125 L 55.0625 -34.03125 Z M 53.515625 -34.03125 "/></g></g><g style="fill:#ffffff;fill-opacity:1;"><g transform="translate(491.239438, 139.154917)"><path style="stroke:none" d="M 41.765625 -16.015625 L 36.21875 0 L -0.8125 0 L -0.8125 -1.8125 L 20.390625 -63.703125 L 64.34375 -63.703125 L 84.90625 -3.09375 L 84.90625 0 L 48.59375 0 L 36.21875 -36.40625 L 34.578125 -36.40625 Z M 41.765625 -16.015625 "/></g></g><g style="fill:#ffffff;fill-opacity:1;"><g transform="translate(580.233864, 139.154917)"><path style="stroke:none" d="M 66.34375 -64.25 L 66.34375 -33.03125 L 50.875 -33.03125 L 50.875 -31.765625 L 66.34375 -31.765625 L 66.34375 0.640625 L 35.484375 0.640625 C 32.578125 0.640625 29.710938 0.425781 26.890625 0 C 24.066406 -0.425781 21.257812 -1.125 18.46875 -2.09375 C 15.007812 -3.425781 11.914062 -5.304688 9.1875 -7.734375 C 6.457031 -10.160156 4.285156 -13.007812 2.671875 -16.28125 C 1.066406 -19.5625 0.207031 -23.113281 0.09375 -26.9375 C 0.03125 -31.125 0.878906 -35.066406 2.640625 -38.765625 C 4.398438 -42.460938 7.039062 -45.523438 10.5625 -47.953125 C 13.101562 -49.710938 15.84375 -50.910156 18.78125 -51.546875 C 21.726562 -52.179688 24.71875 -52.078125 27.75 -51.234375 L 27.9375 -52.421875 C 21.445312 -54.117188 15.378906 -52.992188 9.734375 -49.046875 C 7.128906 -47.222656 4.988281 -45.066406 3.3125 -42.578125 C 1.644531 -40.097656 0.421875 -37.429688 -0.359375 -34.578125 L -1.359375 -34.578125 C -1.054688 -40.585938 0.742188 -46.019531 4.046875 -50.875 C 7.359375 -55.726562 11.984375 -59.363281 17.921875 -61.78125 C 21.867188 -63.425781 25.9375 -64.25 30.125 -64.25 Z M 66.34375 -64.25 "/></g></g><g style="fill:#ffffff;fill-opacity:1;"><g transform="translate(657.216893, 139.154917)"><path style="stroke:none" d="M 0 -63.25 L 34.390625 -63.25 L 29.75 -55.140625 L 31.03125 -54.59375 L 36.125 -63.25 L 70.53125 -63.25 L 71.078125 -61.609375 L 54.046875 -32.578125 L 71.703125 -1.90625 L 71.078125 0 L 36.125 0 L 31.296875 -8.28125 L 30.03125 -7.46875 L 34.390625 0 L 0 0 Z M 0 -63.25 "/></g></g><g style="fill:#ffffff;fill-opacity:1;"><g transform="translate(33.620762, 214.154914)"><path style="stroke:none" d="M 66.796875 -26.75 L 66.796875 -25.109375 C 66.128906 -20.140625 64.320312 -15.710938 61.375 -11.828125 C 58.4375 -7.941406 54.753906 -4.890625 50.328125 -2.671875 C 45.898438 -0.460938 41.046875 0.640625 35.765625 0.640625 L 0 0.640625 L 0 -64.34375 L 34.578125 -64.34375 C 39.003906 -64.34375 43.1875 -63.65625 47.125 -62.28125 C 51.070312 -60.914062 54.546875 -58.835938 57.546875 -56.046875 C 60.554688 -53.265625 62.820312 -49.78125 64.34375 -45.59375 C 65.789062 -42.070312 66.394531 -38.367188 66.15625 -34.484375 C 65.914062 -30.609375 64.820312 -27 62.875 -23.65625 C 60.8125 -19.957031 57.914062 -17 54.1875 -14.78125 C 50.457031 -12.570312 46.441406 -11.585938 42.140625 -11.828125 C 39.765625 -12.128906 37.5 -12.734375 35.34375 -13.640625 C 33.195312 -14.554688 31.210938 -15.925781 29.390625 -17.75 L 28.671875 -16.65625 C 30.609375 -14.894531 32.679688 -13.484375 34.890625 -12.421875 C 37.109375 -11.359375 39.429688 -10.765625 41.859375 -10.640625 C 44.890625 -10.460938 47.832031 -10.875 50.6875 -11.875 C 53.539062 -12.875 56.148438 -14.3125 58.515625 -16.1875 C 60.878906 -18.070312 62.757812 -20.289062 64.15625 -22.84375 C 64.582031 -23.507812 64.929688 -24.207031 65.203125 -24.9375 C 65.472656 -25.664062 65.757812 -26.363281 66.0625 -27.03125 Z M 66.796875 -26.75 "/></g></g><g style="fill:#ffffff;fill-opacity:1;"><g transform="translate(110.785785, 214.154914)"><path style="stroke:none" d="M 62.875 -43.859375 L 45.140625 -43.859375 L 45.140625 -42.59375 L 62.875 -42.59375 L 62.875 -21.109375 L 45.140625 -21.109375 L 45.140625 -19.5625 L 62.875 -19.5625 L 62.875 0 L 0 0 L 0 -63.703125 L 62.875 -63.703125 Z M 62.875 -43.859375 "/></g></g><g style="fill:#ffffff;fill-opacity:1;"><g transform="translate(184.401962, 214.154914)"><path style="stroke:none" d="M 42.140625 -48.046875 L 47.5 -63.796875 L 84.078125 -63.796875 L 84.078125 -60.609375 L 63.609375 0 L 19.5625 0 L -1.28125 -60.609375 L -1.28125 -63.796875 L 35.3125 -63.796875 L 47.5 -27.578125 L 49.328125 -27.578125 Z M 42.140625 -48.046875 "/></g></g><g style="fill:#ffffff;fill-opacity:1;"><g transform="translate(277.673285, 214.154914)"><path style="stroke:none" d="M 62.875 -43.859375 L 45.140625 -43.859375 L 45.140625 -42.59375 L 62.875 -42.59375 L 62.875 -21.109375 L 45.140625 -21.109375 L 45.140625 -19.5625 L 62.875 -19.5625 L 62.875 0 L 0 0 L 0 -63.703125 L 62.875 -63.703125 Z M 62.875 -43.859375 "/></g></g><g style="fill:#ffffff;fill-opacity:1;"><g transform="translate(351.289462, 214.154914)"><path style="stroke:none" d="M 37.484375 -34.21875 L 30.484375 -34.21875 L 30.484375 -32.9375 L 56.421875 -32.9375 L 56.421875 0.09375 L -0.09375 0.09375 L -0.09375 -63.703125 L 37.484375 -63.703125 Z M 37.484375 -34.21875 "/></g></g><g style="fill:#ffffff;fill-opacity:1;"><g transform="translate(418.262894, 214.154914)"><path style="stroke:none" d="M 8.734375 -56.609375 C 11.585938 -59.453125 14.816406 -61.691406 18.421875 -63.328125 C 22.035156 -64.972656 25.828125 -65.976562 29.796875 -66.34375 C 33.773438 -66.707031 37.675781 -66.34375 41.5 -65.25 C 41.675781 -65.1875 41.835938 -65.140625 41.984375 -65.109375 C 42.140625 -65.078125 42.25 -65.0625 42.3125 -65.0625 L 42.140625 -64.0625 C 41.648438 -64.125 41.128906 -64.15625 40.578125 -64.15625 C 40.035156 -64.15625 39.519531 -64.15625 39.03125 -64.15625 C 35.820312 -64.21875 32.742188 -63.671875 29.796875 -62.515625 C 26.859375 -61.359375 24.207031 -59.75 21.84375 -57.6875 C 19.476562 -55.625 17.582031 -53.242188 16.15625 -50.546875 C 14.726562 -47.847656 13.890625 -44.96875 13.640625 -41.90625 C 13.398438 -38.84375 13.945312 -35.734375 15.28125 -32.578125 L 16.375 -32.9375 C 14.863281 -36.695312 14.46875 -40.367188 15.1875 -43.953125 C 15.914062 -47.535156 17.445312 -50.75 19.78125 -53.59375 C 22.125 -56.445312 24.976562 -58.722656 28.34375 -60.421875 C 31.707031 -62.117188 35.269531 -62.96875 39.03125 -62.96875 C 43.644531 -62.96875 47.832031 -61.875 51.59375 -59.6875 C 55.351562 -57.507812 58.507812 -54.582031 61.0625 -50.90625 C 63.613281 -47.238281 65.34375 -43.222656 66.25 -38.859375 C 67.15625 -34.546875 67.15625 -30.265625 66.25 -26.015625 C 65.34375 -21.773438 63.703125 -17.832031 61.328125 -14.1875 C 58.960938 -10.550781 56.003906 -7.425781 52.453125 -4.8125 C 48.910156 -2.207031 44.957031 -0.390625 40.59375 0.640625 C 36.882812 1.484375 33.117188 1.707031 29.296875 1.3125 C 25.472656 0.925781 21.800781 -0.0820312 18.28125 -1.71875 C 14.769531 -3.363281 11.585938 -5.582031 8.734375 -8.375 C 5.640625 -11.40625 3.210938 -14.984375 1.453125 -19.109375 C -0.304688 -23.234375 -1.1875 -27.570312 -1.1875 -32.125 C -1.25 -36.675781 -0.429688 -41.070312 1.265625 -45.3125 C 2.972656 -49.5625 5.460938 -53.328125 8.734375 -56.609375 Z M 8.734375 -56.609375 "/></g></g><g style="fill:#ffffff;fill-opacity:1;"><g transform="translate(494.790951, 214.154914)"><path style="stroke:none" d="M 26.109375 -33.03125 C 25.328125 -30.664062 25.144531 -28.285156 25.5625 -25.890625 C 25.988281 -23.492188 26.945312 -21.304688 28.4375 -19.328125 C 29.925781 -17.359375 31.757812 -15.828125 33.9375 -14.734375 C 34.664062 -14.316406 35.363281 -13.984375 36.03125 -13.734375 C 36.695312 -13.492188 37.363281 -13.222656 38.03125 -12.921875 L 38.03125 0 L -0.09375 0 L -0.09375 -64.609375 L 38.765625 -64.609375 C 42.347656 -64.609375 45.851562 -64.015625 49.28125 -62.828125 C 52.707031 -61.648438 55.691406 -59.753906 58.234375 -57.140625 C 60.421875 -55.023438 62.164062 -52.539062 63.46875 -49.6875 C 64.769531 -46.832031 65.570312 -43.828125 65.875 -40.671875 C 66.1875 -37.515625 65.960938 -34.421875 65.203125 -31.390625 C 64.441406 -28.359375 63.125 -25.597656 61.25 -23.109375 C 59.363281 -20.503906 56.890625 -18.378906 53.828125 -16.734375 C 50.765625 -15.097656 47.519531 -14.144531 44.09375 -13.875 C 40.664062 -13.601562 37.460938 -14.253906 34.484375 -15.828125 C 32.609375 -16.859375 31 -18.269531 29.65625 -20.0625 C 28.320312 -21.851562 27.425781 -23.835938 26.96875 -26.015625 C 26.519531 -28.203125 26.628906 -30.328125 27.296875 -32.390625 Z M 26.109375 -33.03125 "/></g></g><g style="fill:#ffffff;fill-opacity:1;"><g transform="translate(570.045052, 214.154914)"><path style="stroke:none" d="M 62.875 -43.859375 L 45.140625 -43.859375 L 45.140625 -42.59375 L 62.875 -42.59375 L 62.875 -21.109375 L 45.140625 -21.109375 L 45.140625 -19.5625 L 62.875 -19.5625 L 62.875 0 L 0 0 L 0 -63.703125 L 62.875 -63.703125 Z M 62.875 -43.859375 "/></g></g><g style="fill:#ffffff;fill-opacity:1;"><g transform="translate(643.661229, 214.154914)"><path style="stroke:none" d="M 33.765625 0 L 0 0 L 0 -64.515625 L 43.140625 -64.515625 C 46.410156 -64.515625 49.640625 -63.953125 52.828125 -62.828125 C 56.015625 -61.710938 58.847656 -60 61.328125 -57.6875 C 64.054688 -55.207031 66.054688 -52.34375 67.328125 -49.09375 C 68.609375 -45.84375 69.171875 -42.488281 69.015625 -39.03125 C 68.867188 -35.582031 67.945312 -32.25 66.25 -29.03125 C 65.09375 -26.726562 63.539062 -24.664062 61.59375 -22.84375 C 59.65625 -21.019531 57.445312 -19.59375 54.96875 -18.5625 C 52.90625 -17.769531 50.71875 -17.40625 48.40625 -17.46875 C 46.101562 -17.53125 43.890625 -17.984375 41.765625 -18.828125 C 39.640625 -19.679688 37.800781 -20.847656 36.25 -22.328125 C 34.707031 -23.816406 33.632812 -25.578125 33.03125 -27.609375 C 32.425781 -29.648438 32.488281 -31.882812 33.21875 -34.3125 L 31.9375 -34.578125 C 31.15625 -31.972656 31.082031 -29.546875 31.71875 -27.296875 C 32.351562 -25.054688 33.519531 -23.113281 35.21875 -21.46875 C 36.914062 -19.832031 38.898438 -18.546875 41.171875 -17.609375 C 43.453125 -16.671875 45.847656 -16.15625 48.359375 -16.0625 C 50.878906 -15.96875 53.289062 -16.378906 55.59375 -17.296875 C 55.957031 -17.535156 56.535156 -17.773438 57.328125 -18.015625 L 68.984375 -1.359375 L 68.796875 0 L 35.21875 0 L 28.671875 -10.1875 L 27.390625 -9.375 Z M 33.765625 0 "/></g></g></g></svg>