<?xml version="1.0" standalone="no"?>
<!DOCTYPE svg PUBLIC "-//W3C//DTD SVG 20010904//EN"
 "http://www.w3.org/TR/2001/REC-SVG-20010904/DTD/svg10.dtd">
<svg version="1.0" xmlns="http://www.w3.org/2000/svg"
 width="974.000000pt" height="346.000000pt" viewBox="0 0 974.000000 346.000000"
 preserveAspectRatio="xMidYMid meet">

<g transform="translate(0.000000,346.000000) scale(0.100000,-0.100000)"
fill="#000000" stroke="none">
<path d="M1628 3383 c-14 -16 -370 -454 -792 -975 l-766 -948 0 -685 0 -685
658 0 657 0 85 106 c129 160 120 159 120 16 l0 -122 4045 0 4045 0 -2 1657 -3
1658 -1597 3 -1598 2 0 -640 0 -640 -165 0 -165 0 -2 638 -3 637 -2246 3
-2245 2 -26 -27z m1862 -1638 l0 -1565 -905 0 -905 0 0 146 0 145 110 161 c61
89 107 165 103 169 -5 4 -13 9 -20 11 -7 2 -128 -139 -270 -312 l-259 -315
-592 -3 -592 -2 0 624 0 623 763 941 762 941 903 0 902 1 0 -1565z m2570 975
c0 -555 -1 -590 -17 -590 -10 0 -124 -11 -253 -25 -129 -14 -236 -25 -237 -25
-2 0 -3 -9 -3 -20 0 -19 8 -20 463 -22 l462 -3 0 -925 0 -925 -1445 0 -1445 0
-3 1563 -2 1562 1240 0 1240 0 0 -590z m3530 95 l0 -495 -225 0 -225 0 0 -45
0 -45 225 0 225 0 0 -485 0 -485 -225 0 -225 0 0 -40 0 -40 225 0 225 0 0
-500 0 -500 -1510 0 -1510 0 0 1565 0 1565 1510 0 1510 0 0 -495z"/>
<path d="M1900 1805 l0 -245 45 0 45 0 0 245 0 245 -45 0 -45 0 0 -245z"/>
</g>
</svg>
